# xmcd
#
# Track frame offsets:
#	150
#	15128
#	31884
#	49387
#	65982
#	81447
#	97018
#	115834
#	131214
#	144270
#
# Disc length: 2128 seconds
#
# Revision: 2
# Processed by: cddbd v1.5.2PL0 Copyright (c) Steve Scherf et al.
# Submitted via: EZCDAudioConverter 6.0.4.1
#
DISCID=8a084e0a
DTITLE=Doug Stone - The Long Way
DYEAR=2002
DGENRE=Country
TTITLE0=Losing You
TTITLE1=The Long Way
TTITLE2=One Heartache At A Time
TTITLE3=Poor Man´s Blvd.
TTITLE4=P.O.W. 369
TTITLE5=Bone Dry
TTITLE6=Lying To Myself
TTITLE7=More Love
TTITLE8=Born In The Dark
TTITLE9=I´d Be Better Off
EXTD=
EXTT0=
EXTT1=
EXTT2=
EXTT3=
EXTT4=
EXTT5=
EXTT6=
EXTT7=
EXTT8=
EXTT9=
PLAYORDER=
